# xmcd
#
# Track frame offsets:
#	150
#	14779
#	28900
#	49062
#	66221
#	86292
#	100765
#	115730
#	130364
#	147872
#	162344
#	176718
#
# Disc length: 2628 seconds
#
# Revision: 0
# Processed by: cddbd v1.5.2PL0 Copyright (c) Steve Scherf et al.
# Submitted via: dBpowerAMP V4.0
#
DISCID=a50a420c
DTITLE=HeyBale - The Last Country Album
DYEAR=2007
DGENRE=Country
TTITLE0=Guess Where I'll Be This Morning
TTITLE1=Mr. Record Man
TTITLE2=California Wine
TTITLE3=Livin' In a Cheap Motel
TTITLE4=House of Secrets
TTITLE5=HeyBalin'
TTITLE6=Hang Your Head In Shame
TTITLE7=That's How I Got To Memphis
TTITLE8=Honky Tonk Mood
TTITLE9=Step Aside
TTITLE10=Everything... About Drinkin'
TTITLE11=Let's Go To Mexico
EXTD=
EXTT0=
EXTT1=
EXTT2=
EXTT3=
EXTT4=
EXTT5=
EXTT6=
EXTT7=
EXTT8=
EXTT9=
EXTT10=
EXTT11=
PLAYORDER=
